<?xml version="1.0" encoding="UTF-8"?>
<svg xmlns="http://www.w3.org/2000/svg" viewBox="0 0 192 192"><path d="M146.887 103.435L175.9 65.009 33.546 31.899l-9.968 42.856 50.648 11.78-7.557 32.495c-.422.304-.827.627-1.216.97H40c0-8.822-7.178-16-16-16h-8v56h8c8.822 0 16-7.178 16-16h25.453c2.819 2.481 6.505 4 10.547 4 8.822 0 16-7.178 16-16 0-2.757-.701-5.354-1.935-7.621l7.537-32.407 49.285 11.463zM82.018 88.348l7.792 1.812-6.432 27.657A15.887 15.887 0 0 0 76 116c-.141 0-.278.018-.418.021l6.436-27.673zM24 152v-40c4.411 0 8 3.589 8 8v24c0 4.411-3.589 8-8 8zm16-24h20.527c-.332 1.281-.527 2.617-.527 4s.195 2.719.527 4H40v-8zm36 12c-4.411 0-8-3.589-8-8s3.589-8 8-8 8 3.589 8 8-3.589 8-8 8zM33.183 68.776l6.342-27.273L162.1 70.012l-18.464 24.453L92.05 82.467 76.04 78.743l-42.856-9.967z" style="fill: #9e2896;"/></svg>
